<?xml version="1.0" standalone="no"?>
<!DOCTYPE svg PUBLIC "-//W3C//DTD SVG 20010904//EN"
 "http://www.w3.org/TR/2001/REC-SVG-20010904/DTD/svg10.dtd">
<svg version="1.0" xmlns="http://www.w3.org/2000/svg"
 width="250.000000pt" height="250.000000pt" viewBox="0 0 250.000000 250.000000"
 preserveAspectRatio="xMidYMid meet">
<metadata>
Created by potrace 1.14, written by Peter Selinger 2001-2017
</metadata>
<g transform="translate(0.000000,250.000000) scale(0.100000,-0.100000)"
fill="#000000" stroke="none">
<path d="M80 2272 c-19 -11 -45 -37 -57 -58 l-23 -39 0 -558 c0 -599 0 -598
51 -643 13 -12 38 -25 54 -31 17 -5 226 -9 483 -9 l452 1 0 -71 0 -71 -57 -2
c-78 -3 -175 -11 -204 -17 -13 -2 -40 -7 -59 -10 -36 -6 -55 -23 -42 -36 26
-26 217 -43 472 -42 250 0 390 11 453 36 67 26 -28 53 -223 64 -58 3 -109 7
-115 9 -8 2 -11 56 -6 125 1 13 58 15 450 15 l450 0 38 31 c21 17 43 46 49 64
8 23 11 208 12 584 0 525 -1 553 -19 591 -11 22 -32 49 -47 60 -27 20 -45 20
-1052 23 -984 2 -1026 1 -1060 -16z"/>
<path d="M253 659 c-39 -8 -73 -29 -107 -66 -32 -34 -136 -269 -136 -306 0
-16 10 -38 25 -52 l24 -25 1063 0 c848 1 1066 3 1080 13 18 14 34 62 29 87 -6
38 -99 239 -126 274 -16 22 -48 49 -70 60 -40 21 -48 21 -895 22 -470 0 -870
-3 -887 -7z m1724 -107 c13 -8 67 -198 60 -215 -3 -9 -226 -12 -918 -12 -799
0 -914 2 -913 15 6 61 52 207 67 213 19 8 1691 7 1704 -1z"/>
<path d="M2339 516 c-2 -3 -17 -7 -32 -10 -50 -9 -64 -16 -75 -40 -9 -20 -4
-29 47 -79 55 -55 57 -56 128 -62 81 -8 78 -11 87 65 l6 45 -69 43 c-66 40
-83 47 -92 38z"/>
</g>
</svg>
